<svg width="71" height="71" viewBox="0 0 71 71" fill="none" xmlns="http://www.w3.org/2000/svg">
<path d="M57.6029 24.8049L51.2025 31.2053L64.0089 44.0117L70.4093 37.6112L57.6029 24.8049Z" fill="black"/>
<path d="M6.40044 26.4033L0 32.8037L12.8064 45.6101L19.2068 39.2096L6.40044 26.4033Z" fill="black"/>
<path d="M26.4014 6.40347L21.5852 11.2274L15.6541 17.1585L15.1818 17.6308L33.2927 35.7495L24.5276 44.5378L18.1241 50.9413L19.4791 52.2963L37.6055 70.415L37.7139 70.3066L44.009 64.0115L52.7896 55.2309L59.1931 48.8275L41.0357 30.7011L45.8596 25.8772L52.2631 19.4737L50.908 18.1187L32.8049 0L26.4014 6.40347ZM46.3861 48.8352L37.6055 57.6158L25.8749 45.8851L34.6632 37.1045L46.3861 48.8352ZM39.7116 29.3538L27.981 17.6231L32.8049 12.7992L44.5355 24.5299L39.7116 29.3538Z" fill="black"/>
</svg>
