<svg width="514" height="386" viewBox="0 0 514 386" fill="none" xmlns="http://www.w3.org/2000/svg">
<path d="M434.429 32.8293C401.789 18.1093 366.803 7.22934 330.216 1.04267C329.89 0.980122 329.553 1.02043 329.251 1.15803C328.949 1.29563 328.697 1.5237 328.531 1.81067C324.051 9.68267 319.059 19.944 315.56 28.0507C276.757 22.2531 237.307 22.2531 198.504 28.0507C194.607 19.0664 190.213 10.3061 185.341 1.81067C185.176 1.52017 184.926 1.28693 184.625 1.14209C184.324 0.997244 183.986 0.947676 183.656 1C147.091 7.18667 112.104 18.0667 79.4427 32.808C79.1617 32.9259 78.9235 33.1269 78.76 33.384C12.3707 130.984 -5.82667 226.173 3.112 320.168C3.13687 320.398 3.20833 320.621 3.32202 320.823C3.43572 321.024 3.58927 321.201 3.77333 321.341C42.523 349.553 85.7432 371.044 131.624 384.915C131.944 385.013 132.286 385.013 132.606 384.914C132.925 384.815 133.208 384.622 133.416 384.36C143.272 371.133 152.061 357.16 159.571 342.483C160.019 341.629 159.592 340.605 158.696 340.264C144.915 335.074 131.562 328.811 118.76 321.533C118.53 321.402 118.336 321.216 118.196 320.991C118.056 320.766 117.973 320.51 117.956 320.246C117.94 319.982 117.989 319.717 118.099 319.477C118.209 319.236 118.378 319.026 118.589 318.867C121.277 316.883 123.965 314.813 126.525 312.744C126.756 312.558 127.033 312.439 127.327 312.402C127.621 312.364 127.919 312.409 128.189 312.531C211.965 350.163 302.696 350.163 385.491 312.531C385.761 312.401 386.063 312.351 386.361 312.385C386.659 312.419 386.941 312.536 387.176 312.723C389.736 314.813 392.403 316.883 395.112 318.867C395.325 319.023 395.497 319.23 395.611 319.468C395.725 319.707 395.778 319.97 395.765 320.234C395.752 320.499 395.674 320.756 395.538 320.982C395.402 321.209 395.211 321.398 394.984 321.533C382.227 328.872 368.957 335.08 355.027 340.243C354.813 340.32 354.618 340.443 354.455 340.602C354.292 340.761 354.165 340.953 354.082 341.165C353.999 341.377 353.963 341.604 353.975 341.831C353.987 342.058 354.047 342.281 354.152 342.483C361.832 357.139 370.621 371.091 380.285 384.339C380.486 384.611 380.766 384.814 381.087 384.921C381.408 385.028 381.754 385.033 382.077 384.936C428.037 371.104 471.328 349.603 510.12 321.341C510.309 321.209 510.468 321.038 510.586 320.839C510.704 320.64 510.777 320.419 510.803 320.189C521.469 211.517 492.925 117.096 435.091 33.4267C434.949 33.1548 434.714 32.9428 434.429 32.8293ZM172.093 262.931C146.877 262.931 126.077 240.125 126.077 212.157C126.077 184.168 146.472 161.384 172.093 161.384C197.907 161.384 218.515 184.36 218.109 212.157C218.109 240.147 197.715 262.931 172.093 262.931ZM342.227 262.931C316.989 262.931 296.211 240.125 296.211 212.157C296.211 184.168 316.584 161.384 342.227 161.384C368.04 161.384 388.648 184.36 388.243 212.157C388.243 240.147 368.061 262.931 342.227 262.931Z" fill="white"/>
</svg>
