<svg width="512" height="512" viewBox="0 0 512 512" fill="none" xmlns="http://www.w3.org/2000/svg">
<path fill-rule="evenodd" clip-rule="evenodd" d="M256 0C114.667 0 0 114.667 0 256C0 397.333 114.667 512 256 512C397.056 512 512 397.333 512 256C512 114.667 397.056 0 256 0ZM425.088 117.995C456.607 156.381 474.049 204.393 474.517 254.059C467.307 252.672 395.115 237.952 322.368 247.125C320.683 243.499 319.296 239.616 317.632 235.733C313.108 225.054 308.299 214.497 303.211 204.075C383.723 171.307 420.373 124.117 425.088 117.995V117.995ZM256 37.7813C311.531 37.7813 362.347 58.5813 400.939 92.736C397.056 98.2827 364.011 142.443 286.272 171.584C250.432 105.792 210.752 51.904 204.629 43.584C221.468 39.652 238.708 37.6975 256 37.76V37.7813ZM162.987 58.304C168.811 66.0907 207.68 120.235 244.053 184.64C141.867 211.861 51.6267 211.307 41.92 211.307C56.0853 143.552 101.909 87.1893 162.987 58.304ZM37.2053 256.277V249.621C46.656 249.899 152.704 251.285 261.845 218.517C268.224 230.741 274.048 243.221 279.595 255.723C276.821 256.555 273.771 257.387 270.997 258.219C158.272 294.592 98.2827 393.984 93.2907 402.325C57.1821 362.251 37.2011 310.22 37.2053 256.277V256.277ZM256 474.795C205.461 474.795 158.827 457.579 121.899 428.715C125.781 420.651 170.197 335.125 293.483 292.096C294.037 291.819 294.336 291.819 294.869 291.541C325.696 371.221 338.176 438.144 341.525 457.301C315.136 468.693 286.272 474.795 256 474.795ZM377.899 437.312C375.68 423.979 364.011 360.128 335.403 281.536C403.989 270.72 463.957 288.491 471.467 290.987C462.016 351.787 427.029 404.267 377.899 437.312Z" fill="white"/>
</svg>
