<svg width="448" height="448" viewBox="0 0 448 448" fill="none" xmlns="http://www.w3.org/2000/svg">
<path d="M100.288 448H7.408V148.896H100.288V448ZM53.792 108.096C24.096 108.096 0 83.488 0 53.792C0 39.5255 5.66736 25.8433 15.7553 15.7553C25.8433 5.66736 39.5255 0 53.792 0C68.0585 0 81.7407 5.66736 91.8287 15.7553C101.917 25.8433 107.584 39.5255 107.584 53.792C107.584 83.488 83.488 108.096 53.792 108.096ZM447.904 448H355.232V302.4C355.232 267.696 354.528 223.2 306.944 223.2C258.656 223.2 251.248 260.896 251.248 299.904V448H158.464V148.896H247.536V189.696H248.832C261.232 166.192 291.52 141.392 336.704 141.392C430.704 141.392 447.984 203.296 447.984 283.696V448H447.904Z" fill="white"/>
</svg>
