<svg width="400" height="400" viewBox="0 0 400 400" fill="none" xmlns="http://www.w3.org/2000/svg">
<path d="M385.85 233.3C387.9 222.05 389 210.55 389 199.05C389 173.55 384 148.8 374.15 125.55C364.65 103.05 351 82.85 333.65 65.5C316.445 48.2511 296.05 34.5128 273.6 25.05C250.3 15.2 225.6 10.2 200.1 10.2C188.1 10.2 176.05 11.35 164.35 13.6C148.161 5.02116 130.122 0.52431 111.8 0.5C81.9501 0.5 53.85 12.15 32.75 33.25C22.3381 43.6084 14.0829 55.928 8.46152 69.4965C2.84016 83.065 -0.035769 97.6132 9.33046e-06 112.3C9.33046e-06 131.3 4.90002 150 14.05 166.5C12.2 177.2 11.2 188.15 11.2 199.05C11.2 224.55 16.2 249.3 26.05 272.55C35.55 295.05 49.15 315.25 66.5001 332.6C83.8501 349.95 104.05 363.55 126.55 373.05C149.85 382.9 174.55 387.9 200.05 387.9C211.15 387.9 222.25 386.9 233.15 384.95C249.9 394.4 268.8 399.45 288.15 399.45C318 399.45 346.1 387.85 367.2 366.7C388.35 345.6 399.95 317.5 399.95 287.65C400 268.65 395.1 249.9 385.85 233.3ZM200.85 314.75C133.75 314.75 103.75 281.75 103.75 257.05C103.75 244.35 113.1 235.5 126 235.5C154.7 235.5 147.3 276.75 200.85 276.75C228.3 276.75 243.45 261.85 243.45 246.6C243.45 237.45 238.95 227.25 220.85 222.8L161.15 207.9C113.1 195.85 104.35 169.85 104.35 145.45C104.35 94.75 152.1 75.7 196.95 75.7C238.25 75.7 286.95 98.55 286.95 128.95C286.95 142 275.65 149.55 262.75 149.55C238.25 149.55 242.75 115.65 193.4 115.65C168.9 115.65 155.35 126.75 155.35 142.6C155.35 158.45 174.7 163.5 191.5 167.35L235.7 177.15C284.1 187.95 296.35 216.2 296.35 242.8C296.35 283.95 264.7 314.75 200.85 314.75Z" fill="white"/>
</svg>
