<svg width="428" height="428" viewBox="0 0 428 428" fill="none" xmlns="http://www.w3.org/2000/svg">
<path d="M214 0.666626C96.24 0.666626 0.666626 96.24 0.666626 214C0.666626 331.76 96.24 427.333 214 427.333C331.76 427.333 427.333 331.76 427.333 214C427.333 96.24 331.76 0.666626 214 0.666626ZM312.987 145.733C309.787 179.44 295.92 261.36 288.88 299.12C285.893 315.12 279.92 320.453 274.373 321.093C262 322.16 252.613 312.987 240.667 305.093C221.893 292.72 211.227 285.04 193.093 273.093C171.973 259.227 185.627 251.547 197.787 239.173C200.987 235.973 255.6 186.267 256.667 181.787C256.815 181.108 256.795 180.404 256.609 179.734C256.423 179.065 256.077 178.452 255.6 177.947C254.32 176.88 252.613 177.307 251.12 177.52C249.2 177.947 219.333 197.787 161.093 237.04C152.56 242.8 144.88 245.787 138.053 245.573C130.373 245.36 115.867 241.307 104.987 237.68C91.5466 233.413 81.0933 231.067 81.9466 223.6C82.3733 219.76 87.7066 215.92 97.7333 211.867C160.027 184.773 201.413 166.853 222.107 158.32C281.413 133.573 293.573 129.307 301.68 129.307C303.387 129.307 307.44 129.733 310 131.867C312.133 133.573 312.773 135.92 312.987 137.627C312.773 138.907 313.2 142.747 312.987 145.733Z" fill="white"/>
</svg>
